<?xml version="1.0" encoding="utf-8"?>
<!-- Generator: Adobe Adobe Illustrator 24.2.0, SVG Export Plug-In . SVG Version: 6.00 Build 0)  -->
<svg version="1.1" id="Layer_1" xmlns="http://www.w3.org/2000/svg" xmlns:xlink="http://www.w3.org/1999/xlink" x="0px" y="0px"
	 width="40px" height="40px" viewBox="0 0 40 40" style="enable-background:new 0 0 40 40;" xml:space="preserve">
<style type="text/css">
	.st0{fill:none;stroke:#72C299;stroke-linecap:round;stroke-miterlimit:10;}
	.st1{fill:url(#SVGID_1_);}
	.st2{fill:url(#SVGID_2_);}
	.st3{fill:#FFFFFF;stroke:#000000;stroke-width:5;stroke-linecap:round;stroke-miterlimit:10;}
	.st4{fill:url(#SVGID_3_);}
	.st5{fill:none;}
	.st6{fill:url(#SVGID_4_);}
	.st7{fill:url(#SVGID_5_);}
</style>
<g>
	<g>
		<g>
			<linearGradient id="SVGID_1_" gradientUnits="userSpaceOnUse" x1="1.5" y1="27.785" x2="38.8706" y2="27.785">
				<stop  offset="0" style="stop-color:#1F4037"/>
				<stop  offset="1" style="stop-color:#B0EBCD"/>
			</linearGradient>
			<path class="st1" d="M5.67,20.83c0,0-4.35-0.05-4.16,0.08c0.01,0.01,0.06,1.26,0.07,1.27c0.1,0.68,0.11,1.08,0.47,1.44
				c0.05,0.06,0.1,0.12,0.15,0.17l9.69,9.57c0.91,0.9,2.14,1.39,3.43,1.39l3.31-0.02c0.6,0,1.1-0.44,1.2-1.02l0.04-0.3
				c0.06-0.4-0.06-0.8-0.36-1.08l-7.77-7.67h23.56c0.88,0,1.69-0.21,2.27-0.53c0.58-0.33,0.94-1.68,0.94-2.19l-0.06-1.11H5.67z"/>
			<linearGradient id="SVGID_2_" gradientUnits="userSpaceOnUse" x1="1.5" y1="12.209" x2="38.8706" y2="12.209">
				<stop  offset="0" style="stop-color:#1F4037"/>
				<stop  offset="1" style="stop-color:#B0EBCD"/>
			</linearGradient>
			<path class="st2" d="M5.67,19.16h32.77l0.06-1.11c0-0.5-0.37-1.86-0.94-2.19c-0.58-0.33-1.38-0.52-2.27-0.52H11.73l7.77-7.67
				c0.29-0.29,0.42-0.69,0.36-1.08l-0.04-0.31c-0.1-0.58-0.6-1.02-1.2-1.02l-3.31-0.01c-1.29-0.01-2.52,0.5-3.43,1.39L2.19,16.2
				c-0.05,0.06-0.1,0.11-0.15,0.17v0.01c-0.36,0.35-0.37,0.75-0.47,1.43c-0.01,0.02-0.06,1.26-0.07,1.27
				C1.32,19.21,5.67,19.16,5.67,19.16z"/>
		</g>
	</g>
</g>
</svg>
