<?xml version="1.0" encoding="utf-8"?>
<!-- Generator: Adobe Adobe Illustrator 24.2.0, SVG Export Plug-In . SVG Version: 6.00 Build 0)  -->
<svg version="1.1" id="Layer_1" xmlns="http://www.w3.org/2000/svg" xmlns:xlink="http://www.w3.org/1999/xlink" x="0px" y="0px"
	 width="40px" height="40px" viewBox="0 0 40 40" style="enable-background:new 0 0 40 40;" xml:space="preserve">
<style type="text/css">
	.st0{fill:url(#SVGID_1_);}
	.st1{fill:url(#SVGID_2_);}
	.st2{fill:none;stroke:#72C299;stroke-linecap:round;stroke-miterlimit:10;}
	.st3{fill:#FFFFFF;stroke:#000000;stroke-width:5;stroke-linecap:round;stroke-miterlimit:10;}
	.st4{fill:url(#SVGID_3_);}
	.st5{fill:none;}
	.st6{fill:url(#SVGID_4_);}
	.st7{fill:url(#SVGID_5_);}
</style>
<g>
	<g>
		<g>
			<linearGradient id="SVGID_1_" gradientUnits="userSpaceOnUse" x1="1.3499" y1="30.2163" x2="39.0238" y2="30.2163">
				<stop  offset="0" style="stop-color:#1F4037"/>
				<stop  offset="1" style="stop-color:#B0EBCD"/>
			</linearGradient>
			<path class="st0" d="M5.55,20.83c0,0-4.38-0.04-4.2,0.09c0.01,0.02,0.06,1.28,0.07,1.3c0.02,0.15,0.04,0.28,0.05,0.4
				c0.67,0.68,1.59,1.09,2.62,1.09h12.19v12.2c0,1.03,0.42,1.95,1.09,2.62c0.68,0.67,1.61,1.09,2.62,1.09c2.05,0,3.7-1.67,3.7-3.7
				V23.7h12.2c1.02,0,1.95-0.41,2.62-1.09c0.02-0.02,0.05-0.05,0.06-0.07c0.05-0.22,0.07-0.42,0.07-0.57l-0.06-1.14H5.55z"/>
			<linearGradient id="SVGID_2_" gradientUnits="userSpaceOnUse" x1="1.3499" y1="9.7669" x2="39.0238" y2="9.7669">
				<stop  offset="0" style="stop-color:#1F4037"/>
				<stop  offset="1" style="stop-color:#B0EBCD"/>
			</linearGradient>
			<path class="st1" d="M5.55,19.13h33.03l0.06-1.12c0-0.14-0.02-0.32-0.07-0.53c-0.67-0.72-1.62-1.19-2.68-1.19H23.7V4.1
				c0-1.03-0.41-1.95-1.09-2.62c-0.67-0.67-1.59-1.09-2.62-1.09c-2.04,0-3.7,1.65-3.7,3.7v12.19H4.1c-1.02,0-1.95,0.42-2.62,1.09
				v0.01c-0.01,0.1-0.02,0.23-0.05,0.36c-0.01,0.04-0.06,1.28-0.07,1.3C1.17,19.18,5.55,19.13,5.55,19.13z"/>
		</g>
	</g>
</g>
</svg>
